<svg width="102" height="102" viewBox="0 0 102 102" fill="none" xmlns="http://www.w3.org/2000/svg">
<path d="M101.5 51C101.5 78.8904 78.8904 101.5 51 101.5C23.1096 101.5 0.5 78.8904 0.5 51C0.5 23.1096 23.1096 0.5 51 0.5C78.8904 0.5 101.5 23.1096 101.5 51Z" stroke="#979797"/>
<path fill-rule="evenodd" clip-rule="evenodd" d="M39.0961 28.4706C38.1573 28.4706 37.3963 27.7068 37.3963 26.7647C37.3813 24.787 38.123 22.879 39.4684 21.4338C40.3182 20.5879 40.7961 19.4365 40.7961 18.2353C40.7961 17.0341 40.3182 15.8827 39.4684 15.0368C38.123 13.5916 37.3813 11.6836 37.3963 9.70588C37.3963 8.76375 38.1573 8 39.0961 8C40.0349 8 40.796 8.76375 40.796 9.70588C40.7847 10.9093 41.2643 12.0649 42.1235 12.9044C44.8864 15.9175 44.8864 20.5531 42.1235 23.5662C41.2643 24.4057 40.7847 25.5613 40.796 26.7647C40.796 27.7068 40.0349 28.4706 39.0961 28.4706ZM86.53 81.3529H97.9953C98.9769 81.2691 99.9511 81.5824 100.701 82.2231C101.452 82.8639 101.915 83.7789 101.99 84.7647V88.1765C101.99 92.0028 98.2197 95 93.4058 95H15.3835C10.5696 95 6.79933 92.0028 6.79933 88.1765V84.7647C6.87379 83.7789 7.33772 82.8639 8.08792 82.2231C8.83813 81.5824 9.81237 81.2691 10.7939 81.3529H24.9246C21.673 79.058 19.2409 75.7765 17.9859 71.9911C16.1001 72.5326 14.1493 72.8127 12.1878 72.8235C4.78333 72.8235 0 66.4418 0 56.5665C0 52.1482 0 38.7059 12.1878 38.7059C13.8109 38.706 15.4274 38.9136 16.9983 39.3234V37C16.9983 35.1157 18.5204 33.5882 20.398 33.5882H61.194C63.0715 33.5882 64.5936 35.1157 64.5936 37V56.5375C65.0284 56.7318 65.4746 56.8993 65.9297 57.039C66.2514 56.2595 66.6152 55.4981 67.0193 54.7582C67.3788 54.1149 67.9504 53.6173 68.6358 53.3509L77.3645 50.0039C78.066 49.7369 78.8401 49.7338 79.5436 49.9954C80.2835 50.2865 81.006 50.6203 81.7075 50.9951C82.2979 50.1264 82.769 49.182 83.1082 48.1872C83.6384 46.5907 84.9565 45.3848 86.5895 45.0023C86.6404 44.1903 86.6659 43.3766 86.6659 42.5799V42.5796C86.6795 39.2515 86.695 35.4766 90.9036 33.868C91.972 33.4407 93.1763 33.5261 94.1741 34.1C94.9594 34.5384 97.2797 35.8639 99.0033 44.1647C100.519 44.6906 101.598 46.0463 101.772 47.6464C102.202 51.4251 102.023 55.2485 101.242 58.9701C100.318 62.4043 98.8145 65.6544 96.7969 68.5793C96.9533 68.9137 97.0927 69.2207 97.2049 69.4766C97.6305 70.4416 97.5614 71.554 97.0196 72.4585C94.4777 76.4001 90.8269 79.4957 86.53 81.3529ZM92.5117 37.0648C92.3922 36.9836 92.2376 36.9757 92.1105 37.0444C90.2509 37.7557 90.0792 39.0471 90.0707 42.5816C90.069 43.1599 90.0639 43.7809 90.0418 44.4172C92.1989 44.1374 94.0517 44.0112 95.4813 43.9515C94.1979 38.3033 92.8023 37.2269 92.5117 37.0648ZM86.3515 49.2209C86.5247 48.7133 86.9626 48.3428 87.4904 48.2571C87.7086 48.2121 87.9253 48.1762 88.1528 48.1384L88.153 48.1384L88.1531 48.1384L88.1533 48.1383L88.1542 48.1382L88.1572 48.1377C88.2561 48.1213 88.357 48.1045 88.461 48.0865C91.4291 47.5832 94.4327 47.3191 97.4429 47.2967H97.5551C97.9702 47.2683 98.337 47.5658 98.3965 47.9791C98.7882 51.3745 98.6355 54.811 97.9443 58.1581C97.3026 60.5921 96.3078 62.9182 94.9917 65.0618C92.4176 60.288 88.8804 56.1049 84.6057 52.7794C85.3409 51.6754 85.9279 50.4789 86.3515 49.2209ZM78.4694 53.2229L69.9481 56.4897H69.9413C65.7104 64.1969 67.123 74.816 67.9321 79.0415C68.063 79.7306 68.1939 80.3038 68.2908 80.7218C69.4217 81.0859 70.5957 81.2982 71.7822 81.3529H74.0243C76.884 81.146 79.6958 80.5047 82.3637 79.4509C90.1421 76.4724 93.1678 72.3561 94.1078 70.7253C93.0879 68.5281 87.5686 56.8138 78.4694 53.2229ZM59.5944 78.7208C61.2703 79.537 63.0135 80.2059 64.8044 80.7201C64.8382 80.8785 64.8706 81.0213 64.9009 81.1552L64.901 81.1556C64.9164 81.2233 64.9312 81.2888 64.9455 81.3529H56.6044C57.6912 80.5843 58.6935 79.702 59.5944 78.7208ZM57.7603 73.5997C59.6972 75.0385 61.8501 76.1585 64.1381 76.9176C63.26 71.3702 63.4911 65.7029 64.818 60.2461C63.6097 59.8875 62.457 59.3622 61.3928 58.6852C60.9859 58.4444 60.4782 58.4556 60.0823 58.7142C59.8506 58.8491 59.6477 58.9798 59.4533 59.105C59.3725 59.1571 59.2931 59.2082 59.2137 59.2584C56.5887 60.901 54.0933 62.7437 51.7497 64.7701C51.731 64.7905 51.7089 64.811 51.6868 64.8315C51.3062 65.123 51.1789 65.6411 51.3808 66.0768C53.0692 68.9276 55.2261 71.4712 57.7603 73.5997ZM49.4243 53.5948C49.4777 53.4144 49.6163 53.272 49.7949 53.2144C51.5967 52.5321 52.4211 53.3475 54.5204 56.0479C54.8808 56.5102 55.2666 57.0049 55.6814 57.5013C53.8286 58.7483 52.3038 59.9049 51.1514 60.8363C49.3835 56.8821 49.0674 54.5194 49.4243 53.5948ZM12.1878 62.5882C13.8472 62.5647 15.4843 62.2007 16.9983 61.5186V50.5191C15.6358 49.4302 13.9281 48.87 12.1878 48.9412C11.3481 48.9412 10.199 48.9412 10.199 56.5665C10.199 59.4852 10.8959 62.5882 12.1878 62.5882ZM3.39966 56.5685C3.39997 49.8378 4.40036 42.1176 12.1878 42.1176C13.821 42.1095 15.445 42.3634 16.9983 42.8699V46.5359C15.4872 45.8521 13.8453 45.5086 12.1878 45.5294C7.21069 45.5294 6.79933 50.7511 6.79933 56.5665C6.79933 62.4739 8.81363 66 12.1878 66C13.8271 65.9831 15.4525 65.6949 16.9983 65.1471V66C17.0055 66.8917 17.0771 67.7816 17.2125 68.6629C15.5806 69.1465 13.8893 69.3986 12.1878 69.4118C6.6859 69.4118 3.40022 64.6105 3.39966 56.5685ZM20.398 66C20.3964 67.1624 20.5293 68.3211 20.794 69.4527V69.4476C22.3652 76.432 28.5618 81.3823 35.6965 81.3529H45.8955C49.9001 81.3589 53.7447 79.7756 56.5908 76.9484L56.5367 76.9112L56.5367 76.9111L56.5366 76.9111L56.5365 76.911C56.247 76.7121 55.958 76.5135 55.678 76.2967C52.8229 73.9179 50.392 71.0687 48.4894 67.8714C47.6478 66.465 47.6775 64.7005 48.5659 63.3235C46.1419 58.2536 45.3702 54.6439 46.2558 52.3529C46.6585 51.2737 47.5092 50.4238 48.5863 50.0244C52.8755 48.3847 55.2662 51.4595 57.1903 53.9341L57.2011 53.9479C57.6515 54.5279 58.1241 55.1079 58.6153 55.6709C59.4075 55.2536 60.3032 55.0758 61.194 55.1591V37H20.398L20.398 66ZM98.5903 88.1765C98.5903 90.0256 96.2105 91.5882 93.4058 91.5882H15.3835C12.5788 91.5882 10.199 90.0256 10.199 88.1765V84.9199C10.3782 84.8117 10.5849 84.7578 10.7939 84.7647H97.9953C98.2044 84.7578 98.411 84.8117 98.5903 84.9199V88.1765ZM27.1973 26.7647C27.1973 27.7068 27.9584 28.4706 28.8971 28.4706C29.8359 28.4706 30.597 27.7068 30.597 26.7647C30.5857 25.5613 31.0654 24.4057 31.9245 23.5662C34.6874 20.5531 34.6874 15.9175 31.9245 12.9044C31.0654 12.0649 30.5857 10.9093 30.597 9.70588C30.597 8.76375 29.8359 8 28.8971 8C27.9584 8 27.1973 8.76375 27.1973 9.70588C27.1823 11.6836 27.924 13.5916 29.2694 15.0368C30.1192 15.8827 30.5971 17.0341 30.5971 18.2353C30.5971 19.4365 30.1192 20.5879 29.2694 21.4338C27.924 22.879 27.1823 24.787 27.1973 26.7647ZM49.2951 28.4706C48.3563 28.4706 47.5953 27.7068 47.5953 26.7647C47.5803 24.787 48.322 22.879 49.6674 21.4338C50.5172 20.5879 50.9951 19.4365 50.9951 18.2353C50.9951 17.0341 50.5172 15.8827 49.6674 15.0368C48.322 13.5916 47.5803 11.6836 47.5953 9.70588C47.5953 8.76375 48.3563 8 49.2951 8C50.2339 8 50.995 8.76375 50.995 9.70588C50.9837 10.9093 51.4633 12.0649 52.3225 12.9044C55.0854 15.9175 55.0854 20.5531 52.3225 23.5662C51.4633 24.4057 50.9837 25.5613 50.995 26.7647C50.995 27.7068 50.2339 28.4706 49.2951 28.4706Z" fill="#F5AE5C"/>
</svg>
