<svg width="102" height="102" viewBox="0 0 102 102" fill="none" xmlns="http://www.w3.org/2000/svg">
<path d="M101.5 51C101.5 78.8904 78.8904 101.5 51 101.5C23.1096 101.5 0.5 78.8904 0.5 51C0.5 23.1096 23.1096 0.5 51 0.5C78.8904 0.5 101.5 23.1096 101.5 51Z" stroke="#979797"/>
<path fill-rule="evenodd" clip-rule="evenodd" d="M96.9799 60.3087C96.9857 60.3955 96.9857 60.4829 96.9799 60.5697C96.9939 60.6696 97.0007 60.7702 96.9999 60.8709V61.0114V96.9921C96.9999 98.101 96.1019 99 94.9942 99H94.6332L7.64497 82.9372C6.67996 82.7605 5.98423 81.9112 6.00027 80.9293V45.0691C6.00604 44.8136 6.06044 44.5614 6.16073 44.3262V44.2057V44.1053C12.0375 33.8653 22.8684 27.3197 37.5302 25.1111C38.834 23.82 40.4744 22.9222 42.2638 22.5209C42.0632 18.184 42.6448 8.10455 51.5703 3.26562C52.5451 2.7112 53.7844 3.05279 54.3382 4.02861C54.892 5.00442 54.5508 6.24502 53.576 6.79944C46.6964 10.4939 46.2953 18.8466 46.6362 22.541C48.0976 22.8394 49.4703 23.4716 50.6477 24.3882C53.7347 24.4156 56.8165 24.6437 59.874 25.0709C60.2752 25.1394 60.646 25.3287 60.937 25.613L96.6189 59.7465L96.7994 59.9874C96.8693 60.0888 96.9297 60.1963 96.9799 60.3087ZM50.3869 31.9779C50.3759 28.7842 47.7807 26.2043 44.5904 26.2154C41.4078 26.2264 38.834 28.8123 38.834 31.998V32.0181C38.845 35.2118 41.4402 37.7916 44.6305 37.7806C47.8209 37.7696 50.398 35.1716 50.3869 31.9779ZM35.1434 29.5886C34.9371 30.3684 34.8293 31.1712 34.8225 31.9779C34.6641 37.3871 38.9157 41.9007 44.3191 42.0593C49.7225 42.2179 54.2314 37.9618 54.3899 32.5527C54.4322 31.1067 54.1542 29.6694 53.576 28.3437C55.8425 28.4642 57.5875 28.6649 58.3898 28.7653L88.8366 57.8993L11.4558 43.6034C16.41 36.4554 24.3928 31.7771 35.1434 29.5886ZM10.0719 69.605V79.2427L93.0687 94.5827L93.0487 84.5635L10.0719 69.605ZM10.0719 65.5291V59.5056L93.0487 74.4641L93.0687 80.5278L10.0719 65.5291ZM10.0719 47.4384V55.4698L93.0687 70.4885L93.0286 62.8386L71.6275 58.8229L10.0719 47.4384Z" fill="#F5AE5C"/>
</svg>
