<svg width="102" height="102" viewBox="0 0 102 102" fill="none" xmlns="http://www.w3.org/2000/svg">
<path d="M101.5 51C101.5 78.8904 78.8904 101.5 51 101.5C23.1096 101.5 0.5 78.8904 0.5 51C0.5 23.1096 23.1096 0.5 51 0.5C78.8904 0.5 101.5 23.1096 101.5 51Z" stroke="white"/>
<path fill-rule="evenodd" clip-rule="evenodd" d="M85.8445 50.0632L85.1387 49.8598L88.7614 46.2171C97.4478 37.4844 97.4478 23.2727 88.7614 14.54C81.7645 7.50448 70.8374 5.96603 62.1904 10.7997L57.3273 13.516C48.6046 18.3878 40.6059 24.4555 33.5498 31.5506C28.2458 36.8839 23.5028 42.7995 19.4178 49.1269L16.1555 50.0632C6.64316 52.7961 0 61.6512 0 71.5999C0 83.9521 9.99271 94 22.2771 94H79.7245C92.0073 94 102 83.9521 102 71.5999C102 61.6512 95.3568 52.7961 85.8445 50.0632ZM85.3658 53.3866C85.1585 57.7604 84.7669 62.1607 84.1533 66.4866C84.1187 66.7347 83.6894 66.7347 83.6532 66.4866C82.9984 61.8746 82.5854 57.1848 82.3913 52.5115L84.9397 53.2444C85.0213 53.2677 85.1008 53.2957 85.1803 53.3237L85.1806 53.3239C85.242 53.3455 85.3034 53.3672 85.3658 53.3866ZM64.0184 13.5744C63.941 13.6119 63.8636 13.6495 63.7878 13.6914L61.4731 14.9866C64.8917 18.1512 68.4831 21.1735 72.193 23.9708C72.2933 24.0469 72.4332 24.037 72.522 23.9477C72.6092 23.8583 72.6191 23.7177 72.545 23.6168C69.9391 20.1231 67.1209 16.7335 64.1893 13.4895C64.1327 13.519 64.0756 13.5467 64.0184 13.5744ZM58.4509 16.6822C62.1871 20.1925 66.1338 23.5358 70.2171 26.616C70.8456 27.0907 71.5925 27.324 72.3394 27.324C73.2541 27.324 74.1655 26.9733 74.8483 26.2868C76.0871 25.0428 76.2269 23.0411 75.1773 21.6317C72.7457 18.3712 70.1201 15.2149 67.4055 12.1612C74.0174 10.1215 81.4125 11.8336 86.4335 16.8824C93.8367 24.3265 93.8367 36.4372 86.4335 43.8813L81.5194 48.8226L80.4961 48.5281C71.3194 45.8912 61.8136 44.5298 52.2947 44.4156C49.3022 40.7333 46.1106 37.1618 42.7742 33.8053L39.4592 30.472C41.0879 28.9815 42.7594 27.5423 44.4786 26.1611L45.1005 26.7864C49.8418 31.5539 54.9665 36.022 60.3297 40.0666C60.9582 40.5414 61.7067 40.7747 62.452 40.7747C63.3667 40.7747 64.2781 40.424 64.9608 39.7374C66.1996 38.4935 66.3411 36.4918 65.2899 35.0824C61.4056 29.8732 57.1216 24.8989 52.5629 20.2719C54.4828 19.0081 56.4488 17.8154 58.4509 16.6822ZM69.0951 49.2758C68.0027 49.0823 66.9054 48.9102 65.8064 48.7514V49.2179C65.8064 55.8018 66.277 62.4469 67.1999 68.968C67.2361 69.2161 67.6655 69.2161 67.7 68.968C68.623 62.4651 69.0918 55.8415 69.0951 49.2758ZM49.959 47.697L49.9597 47.697L49.96 47.697C50.3063 47.6891 50.6528 47.6811 51 47.6811C51.3472 47.6811 51.6937 47.6891 52.04 47.697L52.0403 47.697C52.2419 47.7016 52.4436 47.7062 52.6452 47.7093V52.5248C52.6452 59.1087 52.1746 65.7538 51.2501 72.2748C51.2155 72.5229 50.7861 72.5229 50.7499 72.2748C49.8254 65.7554 49.3548 59.1103 49.3548 52.5264V47.7093C49.556 47.7062 49.7571 47.7016 49.9583 47.697L49.959 47.697ZM62.656 37.0658C58.7372 31.812 54.4104 26.793 49.7941 22.1495C48.8843 22.7897 47.9877 23.4481 47.0993 24.1164L47.4267 24.4456C52.0578 29.104 57.0641 33.4679 62.3039 37.4198C62.4043 37.4959 62.5457 37.486 62.6329 37.3967C62.7201 37.3074 62.73 37.1667 62.656 37.0658ZM37.0605 32.7383L40.4479 36.1444C43.0736 38.7846 45.5775 41.5852 47.9959 44.4438C46.8674 44.4752 45.7404 44.5281 44.6135 44.5943C42.3925 42.6307 40.2077 40.5828 38.12 38.4835L34.7442 35.089C34.9034 34.9233 35.0593 34.7545 35.215 34.5857L35.2151 34.5856L35.2152 34.5855L35.2155 34.5852L35.2164 34.5843L35.2164 34.5842L35.2166 34.5841L35.2167 34.5839L35.2168 34.5838L35.2169 34.5837L35.2171 34.5835C35.4339 34.3486 35.6505 34.1138 35.876 33.888C36.1162 33.6475 36.3608 33.4127 36.6051 33.1781C36.7574 33.0318 36.9096 32.8857 37.0605 32.7383ZM27.3258 46.3713C27.049 46.0794 26.7723 45.7876 26.4887 45.5025L26.1827 45.1948C25.5477 46.0484 24.9193 46.9036 24.3105 47.7754C25.4885 47.471 26.6697 47.1898 27.8559 46.9268C27.6783 46.7431 27.5025 46.5577 27.3267 46.3722L27.3264 46.3719L27.3261 46.3716L27.3258 46.3713ZM31.6825 46.151C30.7382 45.1435 29.7873 44.141 28.815 43.1634L28.1931 42.5381C29.5685 40.8094 31.0031 39.1303 32.4821 37.4926L35.7938 40.8243C37.1889 42.2271 38.6333 43.5985 40.0942 44.95C37.2761 45.2362 34.4711 45.6414 31.6825 46.151ZM36.1935 49.2179V48.7514C35.0946 48.9102 33.9973 49.0823 32.9032 49.2758C32.9065 55.8415 33.3754 62.4651 34.2983 68.968C34.3345 69.2161 34.7639 69.2161 34.7985 68.968C35.723 62.4469 36.1935 55.8018 36.1935 49.2179ZM19.6087 52.5132C19.4145 57.1864 19.0016 61.8746 18.3468 66.4882C18.3123 66.7364 17.8829 66.7364 17.8467 66.4882C17.2331 62.1624 16.8415 57.7621 16.6342 53.3883C16.6967 53.3688 16.7582 53.3471 16.8197 53.3254L16.8198 53.3254C16.8993 53.2973 16.9787 53.2693 17.0603 53.246L19.6087 52.5132ZM22.2771 90.6915H79.7229C90.1927 90.6915 98.7097 82.1258 98.7097 71.5999C98.7097 64.4717 94.6988 58.0135 88.6034 54.7497C88.3764 58.8291 87.9816 62.9217 87.4091 66.9547C87.1606 68.6983 85.6537 70.0134 83.9032 70.0134C82.1528 70.0134 80.6458 68.6983 80.3974 66.9547C79.6752 61.8762 79.2343 56.705 79.0615 51.5653C76.8488 50.9417 74.6196 50.3875 72.3739 49.9144C72.3427 56.4255 71.8738 62.9895 70.9575 69.4361C70.709 71.1797 69.2021 72.4948 67.4516 72.4948C65.7012 72.4948 64.1942 71.1797 63.9458 69.4378C62.9965 62.7612 62.5161 55.9573 62.5161 49.2179V48.3329C60.3297 48.0881 58.1351 47.9177 55.9355 47.8135V52.5264C55.9355 59.2658 55.4551 66.0681 54.5058 72.7446C54.2574 74.4882 52.7505 75.8033 51 75.8033C49.2495 75.8033 47.7426 74.4882 47.4942 72.7463C46.5449 66.0697 46.0645 59.2658 46.0645 52.5264V47.8135C43.8649 47.9177 41.6703 48.0881 39.4839 48.3329V49.2179C39.4839 55.9573 39.0035 62.7596 38.0542 69.4361C37.8058 71.1797 36.2988 72.4948 34.5484 72.4948C32.7979 72.4948 31.291 71.1797 31.0425 69.4361C30.1262 62.9895 29.6573 56.4255 29.6261 49.9144C27.3804 50.3891 25.1512 50.9417 22.9385 51.5653C22.7641 56.705 22.3248 61.8746 21.6026 66.9547C21.3542 68.6983 19.8472 70.0134 18.0968 70.0134C16.3463 70.0134 14.8394 68.6983 14.5909 66.9564C14.0184 62.9234 13.6236 58.8291 13.3965 54.7497C7.30123 58.0135 3.29032 64.4717 3.29032 71.5999C3.29032 82.1258 11.8073 90.6915 22.2771 90.6915Z" fill="white"/>
</svg>
